# xmcd
#
# Track frame offsets: 
#        150
#        17859
#        53869
#        109511
#        136608
#        160527
#        202271
#
# Disc length: 3271 seconds
#
# Revision: 0
# Processed by: cddbd v1.5.2PL0 Copyright (c) Steve Scherf et al.
# Submitted via: ExactAudioCopy v0.95a5
#
DISCID=540cc507
DTITLE=The Bluesbones - Double Live
DYEAR=2016
DGENRE=Blues
TTITLE0=Broken Down Car
TTITLE1=I Try
TTITLE2=Runaway
TTITLE3=Wrong
TTITLE4=Cruisin'
TTITLE5=Devil's Bride
TTITLE6=Whiskey Drinking Woman
EXTD=
EXTT0=
EXTT1=
EXTT2=
EXTT3=
EXTT4=
EXTT5=
EXTT6=
PLAYORDER=
